<svg style="height: 512px; width: 512px;" xmlns="http://www.w3.org/2000/svg" viewBox="0 0 512 512">
    <path d="M0 0h512v512H0z" fill="#fff" fill-opacity="1"></path>
    <g class="" style="" transform="translate(0,0)">
        <path d="M302.87 255.5a47.37 47.37 0 1 1-47.37-47.37 47.37 47.37 0 0 1 47.37 47.37z
        M128.5 81.18a47.37 47.37 0 1 0 47.41 47.32 47.37 47.37 0 0 0-47.41-47.32z
        m253.91 0a47.37 47.37 0 1 0 47.41 47.32 47.37 47.37 0 0 0-47.32-47.32z
        M128.5 335.09a47.37 47.37 0 1 0 47.41 47.41 47.37 47.37 0 0 0-47.41-47.41z
        m253.91 0a47.37 47.37 0 1 0 47.41 47.41 47.37 47.37 0 0 0-47.32-47.41z"
              fill="#000" fill-opacity="1"></path>
    </g>
</svg>
